# xmcd
#
# Track frame offsets: 
#        150
#        18173
#        35646
#        52793
#        70550
#        90007
#        104578
#        120671
#        135957
#        152338
#        171202
#        190561
#        209432
#        228100
#        246444
#        262821
#        281343
#        300178
#        315786
#        335291
#
# Disc length: 4763 seconds
#
# Revision: 0
# Processed by: cddbd v1.5.2PL0 Copyright (c) Steve Scherf et al.
# Submitted via: ExactAudioCopy v0.99pb3
#
DISCID=e5129914
DTITLE=Rihanna - Good girl Gone Bad CD 2 (chin. edition)
DYEAR=2007
DGENRE=R&B
TTITLE0=SOS
TTITLE1=Kisses Don't Lie
TTITLE2=Unfaithful
TTITLE3=We Ride
TTITLE4=Dem Haters
TTITLE5=Final Goodbye
TTITLE6=Break It Off
TTITLE7=Crazy Little Thing Called Love
TTITLE8=Selfish Girl
TTITLE9=P.S. (I'm Still Not Over You)
TTITLE10=A Girl Like Me
TTITLE11=A Million Miles Away
TTITLE12=If It's Loving That You Want, Pt.2
TTITLE13=Who Ya Gonna Run To
TTITLE14=Coulda Been The One
TTITLE15=Pon De Replay
TTITLE16=Here I Go Again
TTITLE17=If It's Loving That You Want
TTITLE18=You Don't Love Me (No, No, No)
TTITLE19=The Last Time
EXTD=
EXTT0=
EXTT1=
EXTT2=
EXTT3=
EXTT4=
EXTT5=
EXTT6=
EXTT7=
EXTT8=
EXTT9=
EXTT10=
EXTT11=
EXTT12=
EXTT13=
EXTT14=
EXTT15=
EXTT16=
EXTT17=
EXTT18=
EXTT19=
PLAYORDER=
